# xmcd
#
# Track frame offsets:
#	183
#	9593
#	20010
#	25795
#	35330
#	44933
#	52853
#	63103
#	77648
#	85695
#	95645
#	104748
#
# Disc length: 1559 seconds
#
# Revision: 0
# Processed by: cddbd v1.5.2PL0 Copyright (c) Steve Scherf et al.
# Submitted via: audiograbber 1.83.01
#
DISCID=9206150c
DTITLE=Patsy Cline - Live - Volume Two
DYEAR=1989
DGENRE=Country
TTITLE0=Strange (live Spring 1962)
TTITLE1=When Your House Is Not A Home (live June 1960)
TTITLE2=Turn the Cards Slowly (live Summer 1956)
TTITLE3=Yes, I Know Why (live Summer 1956)
TTITLE4=Side By Side (live 8-13-1961)
TTITLE5=Come On In And Make Yourself At Home (live Summer 1956)
TTITLE6=Stupid Cupid (live September 1960)
TTITLE7=The Wayward Wind (live Summer 1956)
TTITLE8=For Rent (live Summer 1956)
TTITLE9=Shoes (live Spring 1962)
TTITLE10=Stop Look And Listen (live Summer 1956)
TTITLE11=Just A Closer Walk With Thee (live 8-13-1961)
EXTD=\n\nYEAR: 1989  ID3G:   2
EXTT0=
EXTT1=
EXTT2=
EXTT3=
EXTT4=
EXTT5=
EXTT6=
EXTT7=
EXTT8=
EXTT9=
EXTT10=
EXTT11=
PLAYORDER=
